# xmcd CD database file
#
# Track frame offsets:
#	150
#	69458
#	103258
#	181958
#	243583
#
# Disc length: 4291 seconds
#
# Revision: 13
# Processed by: cddbd v1.5.2PL0 Copyright (c) Steve Scherf et al.
# Submitted via: CDex 1.51
#
DISCID=4210c105
DTITLE=Miles Davis and John Coltrane - Vol. 014,Immortal Concerts - Konserthuset, Stockholm (March 22, 1960)
DYEAR=1960
DGENRE=Jazz
TTITLE0=So What
TTITLE1=Fran-Dance
TTITLE2=All Blues/The Theme
TTITLE3=On Green Dolphin Street
TTITLE4=Walkin' the Theme
EXTD=YEAR: 1960
EXTT0=
EXTT1=
EXTT2=
EXTT3=
EXTT4=
PLAYORDER=
